<svg width="674" height="232" viewBox="0 0 674 232" fill="none" xmlns="http://www.w3.org/2000/svg">
<path fill-rule="evenodd" clip-rule="evenodd" d="M186.637 157.888C185.097 157.888 184.135 159.555 184.905 160.888L201.01 188.784C201.901 190.327 200.481 192.177 198.76 191.716L149.916 178.627C147.782 178.055 145.588 179.322 145.017 181.456L131.929 230.301C131.467 232.022 129.156 232.326 128.265 230.783L112.157 202.882C111.387 201.549 109.462 201.549 108.693 202.882L92.5851 230.783C91.6941 232.326 89.3821 232.022 88.9211 230.301L75.832 181.456C75.261 179.322 73.067 178.055 70.933 178.627L22.0891 191.716C20.3681 192.177 18.9481 190.327 19.8391 188.784L35.944 160.888C36.714 159.555 35.7521 157.888 34.2121 157.888H2.00395C0.222153 157.888 -0.670147 155.734 0.589853 154.474L36.347 118.717C37.909 117.155 37.909 114.623 36.347 113.061L0.589853 77.303C-0.670147 76.043 0.222253 73.889 2.00405 73.889H34.209C35.748 73.889 36.711 72.223 35.941 70.889L19.8391 43C18.9481 41.457 20.3681 39.607 22.0891 40.068L70.933 53.157C73.067 53.728 75.261 52.462 75.832 50.328L88.9211 1.4829C89.3821 -0.238198 91.6941 -0.542497 92.5851 1.0006L108.692 28.901C109.462 30.235 111.387 30.235 112.157 28.901L128.265 1.0006C129.155 -0.542497 131.467 -0.238198 131.928 1.4829L145.017 50.328C145.588 52.462 147.782 53.728 149.916 53.157L198.76 40.068C200.481 39.607 201.901 41.457 201.01 43L184.908 70.889C184.138 72.223 185.101 73.889 186.64 73.889H218.846C220.628 73.889 221.52 76.043 220.26 77.303L184.503 113.061C182.941 114.623 182.941 117.155 184.503 118.717L220.26 154.474C221.52 155.734 220.628 157.888 218.846 157.888H186.637ZM174.344 81.221C175.791 79.774 174.388 77.345 172.412 77.875L128.916 89.53C126.782 90.101 124.589 88.835 124.017 86.701L112.356 43.183C111.827 41.207 109.022 41.207 108.493 43.183L96.832 86.701C96.26 88.835 94.067 90.101 91.933 89.53L48.4391 77.875C46.4621 77.345 45.06 79.774 46.507 81.221L78.347 113.061C79.909 114.623 79.909 117.156 78.347 118.718L46.4991 150.565C45.0521 152.012 46.455 154.44 48.431 153.911L91.933 142.254C94.067 141.682 96.26 142.949 96.832 145.082L108.493 188.601C109.022 190.577 111.827 190.577 112.356 188.601L124.017 145.082C124.589 142.949 126.782 141.682 128.916 142.254L172.419 153.911C174.396 154.441 175.798 152.012 174.351 150.565L142.504 118.718C140.941 117.156 140.941 114.623 142.504 113.061L174.344 81.221Z" fill="black"/>
<path d="M543.774 201.89V29.8896H606.923C625.925 29.8896 640.586 33.9847 650.906 42.1757C661.226 50.2017 666.386 61.2596 666.386 75.3466C666.386 85.6666 663.683 93.9397 658.277 100.164C653.035 106.225 645.909 110.484 636.9 112.941C643.78 114.088 649.923 116.218 655.329 119.33C660.734 122.442 664.993 126.783 668.106 132.353C671.382 137.759 673.02 144.557 673.02 152.747C673.02 167.981 667.532 180.021 656.557 188.867C645.746 197.549 629.938 201.89 609.134 201.89H543.774ZM572.031 178.056H609.38C620.683 178.056 629.283 175.844 635.18 171.421C641.077 166.835 644.026 160.528 644.026 152.501C644.026 144.147 640.995 137.677 634.934 133.09C628.873 128.503 620.355 126.21 609.38 126.21H572.031V178.056ZM572.031 102.867H607.66C617.488 102.867 625.024 100.656 630.266 96.2327C635.508 91.8097 638.129 85.7487 638.129 78.0497C638.129 70.3507 635.508 64.3717 630.266 60.1127C625.024 55.6897 617.488 53.4787 607.66 53.4787H572.031V102.867Z" fill="black"/>
<path d="M404.013 201.889V179.74L470.959 122.749C476.268 118.27 480.996 113.873 485.144 109.559C489.292 105.246 492.527 100.766 494.85 96.1214C497.173 91.3094 498.334 86.1665 498.334 80.6915C498.334 70.7365 495.265 63.1045 489.126 57.7955C483.153 52.4865 475.189 49.8315 465.235 49.8315C455.28 49.8315 447.233 52.9845 441.095 59.2885C434.956 65.5935 431.886 74.1375 431.886 84.9225V87.9084H404.262V83.4285C404.262 72.3125 406.751 62.5245 411.728 54.0625C416.706 45.4355 423.757 38.6324 432.882 33.6554C442.173 28.6784 452.957 26.1895 465.235 26.1895C478.342 26.1895 489.375 28.4294 498.334 32.9084C507.459 37.3884 514.344 43.6105 518.99 51.5735C523.801 59.5375 526.207 68.8284 526.207 79.4474C526.207 88.0744 524.631 95.7894 521.479 102.591C518.326 109.228 513.93 115.532 508.289 121.505C502.814 127.312 496.509 133.202 489.375 139.175L443.085 177.749H527.451V201.889H404.013Z" fill="black"/>
<path d="M272.425 201.89V29.8896H384.717V54.9527H300.682V102.621H369.974V126.947H300.682V176.827H387.665V201.89H272.425Z" fill="black"/>
<mask id="mask0_994_27948" style="mask-type:alpha" maskUnits="userSpaceOnUse" x="0" y="0" width="221" height="232">
<path fill-rule="evenodd" clip-rule="evenodd" d="M186.637 157.888C185.097 157.888 184.135 159.555 184.905 160.888L201.01 188.784C201.901 190.327 200.481 192.177 198.76 191.716L149.916 178.627C147.782 178.055 145.588 179.322 145.017 181.456L131.929 230.301C131.467 232.022 129.156 232.326 128.265 230.783L112.157 202.882C111.387 201.549 109.462 201.549 108.693 202.882L92.5851 230.783C91.6941 232.326 89.3821 232.022 88.9211 230.301L75.832 181.456C75.261 179.322 73.067 178.055 70.933 178.627L22.0891 191.716C20.3681 192.177 18.9481 190.327 19.8391 188.784L35.944 160.888C36.714 159.555 35.7521 157.888 34.2121 157.888H2.00395C0.222153 157.888 -0.670147 155.734 0.589853 154.474L36.347 118.717C37.909 117.155 37.909 114.623 36.347 113.061L0.589853 77.303C-0.670147 76.043 0.222253 73.889 2.00405 73.889H34.209C35.748 73.889 36.711 72.223 35.941 70.889L19.8391 43C18.9481 41.457 20.3681 39.607 22.0891 40.068L70.933 53.157C73.067 53.728 75.261 52.462 75.832 50.328L88.9211 1.4829C89.3821 -0.238198 91.6941 -0.542497 92.5851 1.0006L108.692 28.901C109.462 30.235 111.387 30.235 112.157 28.901L128.265 1.0006C129.155 -0.542497 131.467 -0.238198 131.928 1.4829L145.017 50.328C145.588 52.462 147.782 53.728 149.916 53.157L198.76 40.068C200.481 39.607 201.901 41.457 201.01 43L184.908 70.889C184.138 72.223 185.101 73.889 186.64 73.889H218.846C220.628 73.889 221.52 76.043 220.26 77.303L184.503 113.061C182.941 114.623 182.941 117.155 184.503 118.717L220.26 154.474C221.52 155.734 220.628 157.888 218.846 157.888H186.637ZM174.344 81.221C175.791 79.774 174.388 77.345 172.412 77.875L128.916 89.53C126.782 90.101 124.589 88.835 124.017 86.701L112.356 43.183C111.827 41.207 109.022 41.207 108.493 43.183L96.832 86.701C96.26 88.835 94.067 90.101 91.933 89.53L48.4391 77.875C46.4621 77.345 45.06 79.774 46.507 81.221L78.347 113.061C79.909 114.623 79.909 117.156 78.347 118.718L46.4991 150.565C45.0521 152.012 46.455 154.44 48.431 153.911L91.933 142.254C94.067 141.682 96.26 142.949 96.832 145.082L108.493 188.601C109.022 190.577 111.827 190.577 112.356 188.601L124.017 145.082C124.589 142.949 126.782 141.682 128.916 142.254L172.419 153.911C174.396 154.441 175.798 152.012 174.351 150.565L142.504 118.718C140.941 117.156 140.941 114.623 142.504 113.061L174.344 81.221Z" fill="url(#paint0_radial_994_27948)"/>
<path fill-rule="evenodd" clip-rule="evenodd" d="M186.637 157.888C185.097 157.888 184.135 159.555 184.905 160.888L201.01 188.784C201.901 190.327 200.481 192.177 198.76 191.716L149.916 178.627C147.782 178.055 145.588 179.322 145.017 181.456L131.929 230.301C131.467 232.022 129.156 232.326 128.265 230.783L112.157 202.882C111.387 201.549 109.462 201.549 108.693 202.882L92.5851 230.783C91.6941 232.326 89.3821 232.022 88.9211 230.301L75.832 181.456C75.261 179.322 73.067 178.055 70.933 178.627L22.0891 191.716C20.3681 192.177 18.9481 190.327 19.8391 188.784L35.944 160.888C36.714 159.555 35.7521 157.888 34.2121 157.888H2.00395C0.222153 157.888 -0.670147 155.734 0.589853 154.474L36.347 118.717C37.909 117.155 37.909 114.623 36.347 113.061L0.589853 77.303C-0.670147 76.043 0.222253 73.889 2.00405 73.889H34.209C35.748 73.889 36.711 72.223 35.941 70.889L19.8391 43C18.9481 41.457 20.3681 39.607 22.0891 40.068L70.933 53.157C73.067 53.728 75.261 52.462 75.832 50.328L88.9211 1.4829C89.3821 -0.238198 91.6941 -0.542497 92.5851 1.0006L108.692 28.901C109.462 30.235 111.387 30.235 112.157 28.901L128.265 1.0006C129.155 -0.542497 131.467 -0.238198 131.928 1.4829L145.017 50.328C145.588 52.462 147.782 53.728 149.916 53.157L198.76 40.068C200.481 39.607 201.901 41.457 201.01 43L184.908 70.889C184.138 72.223 185.101 73.889 186.64 73.889H218.846C220.628 73.889 221.52 76.043 220.26 77.303L184.503 113.061C182.941 114.623 182.941 117.155 184.503 118.717L220.26 154.474C221.52 155.734 220.628 157.888 218.846 157.888H186.637ZM174.344 81.221C175.791 79.774 174.388 77.345 172.412 77.875L128.916 89.53C126.782 90.101 124.589 88.835 124.017 86.701L112.356 43.183C111.827 41.207 109.022 41.207 108.493 43.183L96.832 86.701C96.26 88.835 94.067 90.101 91.933 89.53L48.4391 77.875C46.4621 77.345 45.06 79.774 46.507 81.221L78.347 113.061C79.909 114.623 79.909 117.156 78.347 118.718L46.4991 150.565C45.0521 152.012 46.455 154.44 48.431 153.911L91.933 142.254C94.067 141.682 96.26 142.949 96.832 145.082L108.493 188.601C109.022 190.577 111.827 190.577 112.356 188.601L124.017 145.082C124.589 142.949 126.782 141.682 128.916 142.254L172.419 153.911C174.396 154.441 175.798 152.012 174.351 150.565L142.504 118.718C140.941 117.156 140.941 114.623 142.504 113.061L174.344 81.221Z" fill="url(#paint1_radial_994_27948)"/>
</mask>
<g mask="url(#mask0_994_27948)">
<g filter="url(#filter0_f_994_27948)">
<path d="M198.205 -26.6914L110.425 117.887L154.315 190.176L198.205 262.465L275.658 117.887L198.205 -26.6914Z" fill="url(#paint2_linear_994_27948)"/>
</g>
</g>
<defs>
<filter id="filter0_f_994_27948" x="89.7708" y="-47.3454" width="206.541" height="330.464" filterUnits="userSpaceOnUse" color-interpolation-filters="sRGB">
<feFlood flood-opacity="0" result="BackgroundImageFix"/>
<feBlend mode="normal" in="SourceGraphic" in2="BackgroundImageFix" result="shape"/>
<feGaussianBlur stdDeviation="10.327" result="effect1_foregroundBlur_994_27948"/>
</filter>
<radialGradient id="paint0_radial_994_27948" cx="0" cy="0" r="1" gradientUnits="userSpaceOnUse" gradientTransform="translate(148.767 181.922) rotate(59.4351) scale(161.356 156.629)">
<stop offset="0.455526"/>
<stop offset="0.762774" stop-color="#FF8800"/>
<stop offset="0.895833" stop-color="#FF3D00"/>
<stop offset="0.916667"/>
</radialGradient>
<radialGradient id="paint1_radial_994_27948" cx="0" cy="0" r="1" gradientUnits="userSpaceOnUse" gradientTransform="translate(110.425 115.892) rotate(90) scale(115.892 110.425)">
<stop offset="0.03125"/>
<stop offset="0.500802"/>
<stop offset="0.5784"/>
<stop offset="0.787671" stop-opacity="0"/>
<stop offset="1" stop-opacity="0"/>
</radialGradient>
<linearGradient id="paint2_linear_994_27948" x1="137.964" y1="66.2521" x2="208.532" y2="195.339" gradientUnits="userSpaceOnUse">
<stop/>
<stop offset="0.720129" stop-color="#FF8800"/>
<stop offset="1" stop-color="#FF4400"/>
</linearGradient>
</defs>
</svg>
